<svg xmlns="http://www.w3.org/2000/svg" width="384.2" height="402.9" preserveAspectRatio="none" viewBox="15.8 68.4 384.2 402.9"><path fill="#b4b4b4" fill-rule="evenodd" d="M206 69v1c-1 3-1 3-3 3s-2 2-1 2l4 4c0 1 1 1 1-1s0-2 2-2l2-1 1-1h-2l-3-4c0-2-1-2-1-1m1 4 1 1-1 1c-1 2-1 2-2 1l-1-1 1-1 1-1h1m-2 34-2 3h-2c-4-1-6 0-3 1l2 2-1 2-2 1c-2 1 0 2 4 2v-2c-2 0-2-1 0-3a65 65 0 0 0 4-5l1 3 1 2 2 1-2 1c-3 1-3 1-3 3 0 1-1 1-1-1h-1l3 4v-2c0-2 0-2 4-3l2-2-4-2v-6l-2 1m-4 4h-1 1M79 131c-2 1-4 4-4 6s4 4 6 3 3-1 3 1v2l1 1v1h-2l-2-1h-1l1 2 1 3v1l-1 1c-10 3-16 12-12 22l1 3h-1l-2 6c0 3 3 3 8 1l1-1 2 1 5 1c4 0 11-3 14-6 5-6 5-11 3-17l-1-2 1-1 1-2c2-2 1-3 0-4-2-1-3-1-6 1h-3l-6-3c-2 0-2 0-2-2l1-2 3-1c1 0-1-3-3-3v-3c4 0 5-5 1-8h-7m6 1 2 4-4 2h-5c-2-1-1-4 2-6h5m-5 3v1l1-1h-1m4 1h-1 2-1m229 8-2 4c0 2 0 2-3 2l-1 1 2 1 1 2c0 2 0 3 1 1h6v-1l-1-1 1-1 1-1c1-1 1-1-2-2-1 0-2-1-2-3l-1-2m1 5 1 2v2h-1c-3 0-4-1-3-2l1-2c1-2 1-2 2 0m-227 4c4 1 10 5 10 7-1 3-7 10-12 14l-9 6c-5-4-8-12-6-18 3-6 8-9 15-10l2 1m13 0v1h-1v3h-1l-1-2-2-1h1l4-1m211 0-1 1 1-1M98 164l1 5c-1 8-10 14-18 12-2 0-2-1 0-3l16-14c1-2 1-2 1 0m-27 13 3 3c1 1 1 1-1 2-4 2-6 0-4-4 1-1 1-2 2-1m47 28 1 1c1 2 0 5-2 6-2 2-1 2 2 1 2 0 3 0 4 2s2 1 1-1v-3l1-1 1-2h-1c-2 0-2 1-4-2-2-2-2-2-3-1m160 1c-10 1-21 9-24 19l-1 1-3-6c0-4 0-4-2 0s-2 10 0 13l-1 2c-4 5-3 10 2 12 2 2 2 1 3-2 0-5 1-6 2-2s7 9 11 9v-2l3 3c1 2 3 1 2-1v-1l-1-1-5-3 1 3h-2c-3-2-6-5-7-8l-2-3-1 1c-1-2-3 2-3 5l-1 1c-4-3-4-6 0-11l1-2-2-2 1-9 4 6 1-1c3-10 16-19 26-19l-2 3c-2 3 2 1 5-4 2-1 0-2-5-1m-156 3c1 0 2 1 1 2l-1 1h-2c-2 0-2 0-1-1l1-3v-1l1 1 1 1m176 0a50 50 0 0 0-16 4l-4 2c0 1 1 1 5-1a53 53 0 0 1 29-2l-4 4-6 7 7 2 7 3 9 5 7 4 2 2-3 1a501 501 0 0 1-7 8c2 1 5 6 5 8 0 1-1 2-3 1h-2v5l-1 2-4 4a136 136 0 0 0-6 5h-2l-4-1h-4l-4 1a80 80 0 0 0-13 2h-2l-1-1c0-3-1-3-1 0 1 1 1 1-1 1-3 0-3 0-2-1v-2h-2l-1 2 1 1h-18c-6-3-10-11-7-15 3-3 3-5 2-7-2-1-2-1-2 1 1 2 1 2-1 5-4 5-1 14 6 17 3 2 3 1 2 3s-2 3-1 5v3l-3 1-2 4-2 3c-2 4-2 8 0 11l1 1v1l-3 7-4 1a119 119 0 0 0-8 2l1-2 1-2 3-9 2-5h-16c-10 1-17 9-20 22l-1 4v1l-2 1c-2 1-3 1-3-1a99 99 0 0 0-6-11l5-3c10-6 11-7 6-8l-9-2-2-6-2-13v-2l-1-1h-1c-2 1-2 2 0 3v1l-2 3-4 10-6-12 1-2v-3c-1-1-3 0-3 2h1c1-1 1-1 0 0v2a313 313 0 0 1-4 18l-5 2c-11 3-12 3-10 5l10 6 3 1-3 11c-1 4-2 9-1 13v1l-2 1-4 1a211 211 0 0 0-21 11 339 339 0 0 0-61 45 134 134 0 0 0-21 22 105 105 0 0 0-5 7l-5 7a203 203 0 0 0-22 35h4l2-4a430 430 0 0 0 13-21 258 258 0 0 1 50-57l3-3a91 91 0 0 1 15-11 173 173 0 0 1 13-9 368 368 0 0 1 42-21c3 4 7 6 14 7h4l2 2c6 4 15 4 24-2 8-5 14-13 18-24l2-4 3-4a46 46 0 0 1 11-3v9l-2 1c-6 4-7 7-2 11 3 3 4 4 11 4 10 1 13 0 13-4 0-3 0-3 2-3 4 0 5 0 7-3 1-3 1-3 3-1 4 2 6 2 10 2l7-1 1-1 1 1c12 5 24-2 26-14v-4h1a294 294 0 0 1 73 16h1v-4h-2a246 246 0 0 0-73-15l-2-7-1-3c-3-7-6-13-10-14v-1l4-1 11-5c11-6 13-6 21-4 13 2 24 2 36-1 8-3 15-10 14-14h-2l-6 2c-2 0-6 0-5-1l9-8v-1h-1l-3 2a158 158 0 0 1-15 7c-7 2-13 2-22 0-13-3-19-2-27 2-1 1-1 1 0 0v-5h1c2 0 3-1 3-3 0-3-2-8-5-9l-1-1h1l7-4 4-3c1-1 1-1-3-3l-8-5c-6-5-13-7-21-8v-2l5-4c4-2 6-5 6-5 0-2-10-4-17-3m-25 45-3 2h3c3-2 9 1 9 5s-3 6-7 6c-2 0-3 1-1 2 3 2 9-3 9-8 0-4-5-9-10-7m117 3-2 1a125 125 0 0 0-5 4c-2 1-2 1 3 2h7l3-1h1l-1 1c-3 5-13 10-25 11h-17c-10-2-13-2-16-1l-11 5c-5 3-9 4-12 4l-1-2a72 72 0 0 0-2-6l4-3c13-10 21-12 38-8 11 3 19 2 29-4l7-3m-133 2c-2 1 0 2 2 0v-1l-2 1m16 0v1c1 1 4 0 4-1h-4m1 3 2 2h1l-1-1c-1-1-1-2-2-1m36 12c2 1 2 1 2 3l1 3c1 4-1 5-13 6a227 227 0 0 0-25 2l-6 1h-3l-1-1-3-1c-2-1-2-1-2-3v-3l1-1c0-2 2-3 4-3h11a547 547 0 0 0 34-3m-12 7c0 2 0 3 1 2l1-1-1-2-1-2v3m14 6c3 3 6 7 9 15l2 12c0 8-2 12-7 16-6 4-16 2-21-4l-4-5-4-5a2023 2023 0 0 1-13-9c-3 1-13 2-15 1-3 0-6-2-7-4v-7c2-1 2-1 2 2v2-2c1-2 1-2 5-2 6 0 8-1 8-5v-2h2a2820 2820 0 0 1 43-3m-119 3a126 126 0 0 1 2 13l10 3 2 1-7 5c-6 4-6 3-4 6 6 12 6 12 6 18l-1 7-9 3c-5 1-6 1-1 1 7 0 11-2 14-8 2-2 3-7 4-12a399 399 0 0 1 2-8c0-5 5-12 9-14 5-4 9-4 18-4l4-1 1 1a111 111 0 0 0-9 19l-2 5c-6 15-12 23-22 28-7 3-17 3-21-1l-2-1-9-2c-4-1-6-3-7-7l-1-3 3-17 1-5-2-2a196 196 0 0 1-10-5l-1-1h1a108 108 0 0 0 14-4v-3l1-4 2-9h1l5 11c2 0 3-3 5-8s3-5 3-2m71-1c2 1 2 5 0 6h-10v-4h1c0-2 6-4 9-2m-204 4c-8 1-24 10-30 16a99 99 0 0 1 30-16m223 3-1 3v2c1 0 2-5 1-7v2m-246 3c-3 1-10 7-10 8l3-2 5-4c4-2 4-2 2-2m190 5-5 1c-1 2 0 2 2 1l3-2c2-1 2-1 0 0m28 4c3 2 3 1 1 5a108 108 0 0 0-5 10l-1 1h-1v-3l2-6a219 219 0 0 0 2-7h2m19 1 5 3 4 2c4 3 5 3 7 8l4 7c3 2 3 2 1 2l-5 1c-5 0-6-1-9-3l-2-1v-1l2-6c-1-1-1 0-1 2-1 4-5 10-7 10-2 1-7 0-13-2-3-1-7-3-8-5l2-6c5-11 4-10 8-10l9-1h3m-257 0v4c-2 3-2 4 1 3 1-1 1-1 2 1 2 2 2 2 2 0l-1-2 1-1c3-1 2-2 0-2s-1 0-3-2l-2-1m1 2 1 1v1h2c2 0 2 0 1 1h-2l-3 1 1-1v-3m232 15 1 1-3 4-4 4h-1c-1-2 0-4 4-7l3-2m3 3c2 2 8 5 13 6l1 1-1 1c0 4 0 3-8 3-11 0-13-1-12-5l4-4 2-2h1m-46 1-2 7-1 2v-2l-1-4c0-2 0-2 2-3h2m49 5 2 1c2 0 2-1 0-1h-2m49 31 1 1 3 1h1c0-2-3-3-5-2m-22 10-3 2c-3 2-2 1-5 1-6 0-11 2-16 6l-3 2c-2 2 0 2 2 0 7-5 10-6 16-6 4 0 4 0 7-2l3-2 2 1h3l-4-2h-2m8 1v2c1 0 2-1 1-2h-1m-146 7c-1 0 1 2 2 1v-1h-2m-25 27 2 3c1 0 2 0 1-1-1-2-3-3-3-2m49 5c-2 1-2 2-2 4 0 1 1 2 3 1s2-2 0-2-2-1 1-3h-2m79 35-4 3h3l2-1c2-1 1-2-1-2"/></svg>